#!OML:ASF H:\Terrain\Patient Classification 1\Walking\liu\liu.ASF
:FULLY-SPECIFIED
:DEGREES
32
root 8.27196 16.2429 -28.567 5.90445 0.01761 -4.43082
lowerback -3.74877 1.01964 0.99034
upperback -0.118472 1.24227 3.77225
thorax 1.91819 0.614657 3.39502
lowerneck -22.3955 -4.29216 -12.7949
upperneck 18.2015 -5.0592 14.3498
head 10.2287 -1.59505 6.54707
rclavicle 4.52235e-015 1.35174e-014
rhumerus -29.4217 17.8017 -85.0955
rradius 33.8808
rwrist -13.9519
rhand -29.0778 -22.8861
rfingers 7.12502
rthumb -2.42681 -52.8521
lclavicle 4.52235e-015 1.35174e-014
lhumerus -44.798 -5.36182 89.5397
lradius 20.3505
lwrist -4.119
lhand -8.69682 -26.3414
lfingers 7.12502
lthumb 17.2383 2.914
rfemur -10.7997 2.15989 31.8164
rtibia 24.8541
rfoot -17.115 1.72057
rtoes -12.2853
lfemur -35.4668 12.6755 -17.5432
ltibia 61.8859
lfoot -13.4152 13.7049
ltoes -10.7369
33
root 8.27153 16.2606 -28.4315 5.98528 -0.204254 -4.45547
lowerback -3.8343 1.08538 1.00412
upperback -0.104079 1.32679 3.72991
thorax 1.97792 0.656773 3.35012
lowerneck -22.3888 -4.31009 -12.5633
upperneck 18.1978 -5.11418 14.1446
head 10.2215 -1.62661 6.41899
rclavicle 8.99501e-015 -3.02153e-014
rhumerus -28.7958 17.807 -84.9482
rradius 33.9175
rwrist -14.0044
rhand -28.9546 -23.7697
rfingers 7.12502
rthumb -2.30782 -53.7369
lclavicle 8.99501e-015 -3.02153e-014
lhumerus -45.2004 -5.27459 89.2431
lradius 20.5691
lwrist -3.60627
lhand -6.90512 -23.3748
lfingers 7.12502
lthumb 18.9621 5.72092
rfemur -10.1643 2.58591 31.8237
rtibia 24.5943
rfoot -17.6705 1.40476
rtoes -13.9086
lfemur -36.0113 12.4758 -17.7666
ltibia 59.9938
lfoot -13.4929 13.3423
ltoes -10.413
34
root 8.27327 16.2656 -28.2953 6.14853 -0.296128 -4.5108
lowerback -4.08175 1.05741 1.01899
upperback -0.0551067 1.27915 3.70187
thorax 2.17054 0.631906 3.31714
lowerneck -22.3865 -4.3001 -12.4877
upperneck 18.0805 -5.1166 14.1531
head 10.1782 -1.62162 6.40354
rclavicle -8.44835e-015 7.95139e-015
rhumerus -28.1712 17.9901 -84.9179
rradius 33.9975
rwrist -14.0629
rhand -27.7091 -26.9983
rfingers 7.12502
rthumb -1.10499 -56.9752
lclavicle -8.44835e-015 7.95139e-015
lhumerus -45.5263 -5.15377 88.9165
lradius 20.7553
lwrist -3.26252
lhand -5.90825 -22.3701
lfingers 7.12502
lthumb 19.9206 6.62895
rfemur -9.58312 2.79302 31.9101
rtibia 24.1772
rfoot -17.9483 1.2784
rtoes -14.8682
lfemur -36.6188 12.1905 -17.9052
ltibia 57.9318
lfoot -13.4663 12.7598
ltoes -10.2398
35
root 8.27859 16.2596 -28.1586 6.20165 -0.370044 -4.66921
lowerback -4.14207 1.07652 1.17492
upperback 0.017111 1.29136 3.74235
thorax 2.28076 0.638547 3.27489
lowerneck -22.6058 -4.44055 -12.9195
upperneck 18.1675 -5.23903 14.5193
head 10.2941 -1.66098 6.60595
rclavicle 1.39149e-014 3.4191e-014
rhumerus -27.582 18.2307 -84.7517
rradius 34.1759
rwrist -14.1992
rhand -26.6019 -28.9978
rfingers 7.12502
rthumb -0.0355999 -58.9775
lclavicle 1.39149e-014 3.4191e-014
lhumerus -45.7769 -4.81765 88.5672
lradius 20.8324
lwrist -3.27212
lhand -6.34317 -21.9761
lfingers 7.12502
lthumb 19.5024 7.06578
rfemur -8.84843 2.77971 32.1105
rtibia 23.673
rfoot -17.8066 1.20753
rtoes -14.5277
lfemur -37.0212 11.7813 -17.8306
ltibia 55.7209
lfoot -13.875 12.0312
ltoes -8.18133
36
root 8.28361 16.2646 -28.0238 6.14023 -0.597297 -4.58129
lowerback -4.01884 1.21015 1.06795
upperback 0.0716114 1.47687 3.7547
thorax 2.25582 0.729908 3.35658
lowerneck -22.8387 -4.58713 -13.1052
upperneck 18.4151 -5.40192 14.6125
head 10.4609 -1.73065 6.66179
rclavicle -1.54058e-014 2.38542e-015
rhumerus -27.1178 18.2253 -84.3907
rradius 34.3931
rwrist -14.2861
rhand -27.8213 -26.4182
rfingers 7.12502
rthumb -1.21328 -56.3945
lclavicle -1.54058e-014 2.38542e-015
lhumerus -46.0852 -4.65609 88.4512
lradius 21.0812
lwrist -3.11676
lhand -7.44638 -21.3911
lfingers 7.12502
lthumb 18.4415 7.75474
rfemur -7.90769 2.89898 32.0073
rtibia 23.061
rfoot -17.3934 1.0811
rtoes -13.7191
lfemur -37.1519 11.4619 -18.0618
ltibia 53.3206
lfoot -13.9965 11.8668
ltoes -9.10299
37
root 8.28938 16.2668 -27.892 6.14575 -0.775962 -4.71942
lowerback -3.81063 1.38689 1.21798
upperback -0.0487879 1.71657 3.82287
thorax 2.00538 0.852837 3.34738
lowerneck -22.7549 -4.64306 -13.1795
upperneck 18.6746 -5.47111 14.5286
head 10.5487 -1.78015 6.64231
rclavicle -1.15792e-014 1.59028e-014
rhumerus -26.9241 18.1 -84.023
rradius 34.5572
rwrist -14.4402
rhand -29.267 -23.4619
rfingers 7.12502
rthumb -2.6096 -53.4257
lclavicle -1.15792e-014 1.59028e-014
lhumerus -46.603 -4.51842 88.3485
lradius 21.4452
lwrist -3.17139
lhand -7.92375 -20.6916
lfingers 7.12502
lthumb 17.9822 8.49707
rfemur -7.01067 3.08307 32.1417
rtibia 22.325
rfoot -17.0773 1.05015
rtoes -12.921
lfemur -37.3928 11.2713 -18.149
ltibia 50.7892
lfoot -13.4297 12.2273
ltoes -14.1398
38
root 8.2963 16.2735 -27.7563 6.30043 -0.930967 -4.86952
lowerback -3.77253 1.52462 1.41237
upperback -0.178734 1.89853 3.82283
thorax 1.84775 0.946719 3.24334
lowerneck -22.5379 -4.65798 -13.3057
upperneck 18.6333 -5.46993 14.5245
head 10.4967 -1.79711 6.65916
rclavicle -4.32357e-015 -1.35174e-014
rhumerus -26.5985 18.0211 -83.8201
rradius 34.5629
rwrist -14.6593
rhand -29.672 -22.2701
rfingers 7.12502
rthumb -3.00067 -52.2287
lclavicle -4.32357e-015 -1.35174e-014
lhumerus -46.9034 -4.32336 87.9969
lradius 21.5437
lwrist -3.5149
lhand -7.79178 -20.1777
lfingers 7.12502
lthumb 18.1092 8.9993
rfemur -6.21672 3.28362 32.2466
rtibia 21.4682
rfoot -16.9538 1.03878
rtoes -12.2388
lfemur -37.6829 10.9793 -18.2148
ltibia 48.1269
lfoot -12.9319 12.5423
ltoes -15.24
39
root 8.30383 16.2914 -27.6189 6.44003 -1.13532 -4.76979
lowerback -3.94861 1.62668 1.3469
upperback -0.0984805 2.03011 3.70104
thorax 2.02516 1.0113 3.16888
lowerneck -22.3588 -4.63952 -13.3192
upperneck 18.2076 -5.43547 14.5964
head 10.3088 -1.78054 6.6738
rclavicle 5.42682e-014 2.46493e-014
rhumerus -26.037 17.748 -83.7095
rradius 34.6539
rwrist -14.5698
rhand -29.9593 -22.9106
rfingers 7.12502
rthumb -3.27817 -52.8652
lclavicle 5.42682e-014 2.46493e-014
lhumerus -46.8847 -4.39699 87.6988
lradius 21.579
lwrist -3.45727
lhand -7.61548 -20.2746
lfingers 7.12502
lthumb 18.2788 8.8866
rfemur -5.37525 3.34653 32.0641
rtibia 20.5291
rfoot -16.5386 1.17774
rtoes -11.5309
lfemur -37.8174 10.5224 -18.4787
ltibia 45.3797
lfoot -12.6177 12.9201
ltoes -13.5335
40
root 8.31206 16.3028 -27.4823 6.42823 -1.34215 -4.95691
lowerback -3.94394 1.71764 1.58029
upperback -0.0303632 2.13844 3.68194
thorax 2.09718 1.06713 3.02553
lowerneck -22.1238 -4.54106 -13.2206
upperneck 17.8767 -5.35777 14.7321
head 10.1378 -1.73109 6.70429
rclavicle 1.4561e-014 2.3059e-014
rhumerus -25.6029 17.4644 -83.6253
rradius 34.7875
rwrist -14.3536
rhand -30.2336 -24.1789
rfingers 7.12502
rthumb -3.54302 -54.1292
lclavicle 1.4561e-014 2.3059e-014
lhumerus -46.9545 -4.28914 87.4022
lradius 21.5145
lwrist -3.35615
lhand -7.60851 -20.615
lfingers 7.12502
lthumb 18.2855 8.54551
rfemur -4.36481 3.20274 32.2173
rtibia 19.5467
rfoot -15.7524 1.37217
rtoes -10.8363
lfemur -37.7321 10.0676 -18.322
ltibia 42.5859
lfoot -12.4249 13.1041
ltoes -13.2819
41
root 8.32254 16.3022 -27.3442 6.3643 -1.51213 -5.21416
lowerback -3.75602 1.77756 1.90873
upperback -0.0876533 2.21247 3.74093
thorax 1.94006 1.10734 2.89783
lowerneck -22.0727 -4.42155 -13.0585
upperneck 18.0679 -5.26469 14.711
head 10.1755 -1.68021 6.69071
rclavicle -1.76421e-014 -1.19271e-014
rhumerus -25.4218 17.5686 -83.5495
rradius 34.9217
rwrist -14.4773
rhand -30.5073 -23.975
rfingers 7.12502
rthumb -3.80736 -53.9208
lclavicle -1.76421e-014 -1.19271e-014
lhumerus -47.152 -3.82633 87.0295
lradius 21.3428
lwrist -3.39376
lhand -7.2697 -20.6955
lfingers 7.12502
lthumb 18.6114 8.43412
rfemur -3.22034 3.10586 32.4448
rtibia 18.4143
rfoot -15.109 1.43117
rtoes -10.8234
lfemur -37.5565 9.73867 -18.084
ltibia 39.7704
lfoot -12.1568 13.013
ltoes -14.5246
42
root 8.33384 16.302 -27.2063 6.35962 -1.59431 -5.31469
lowerback -3.74483 1.8323 2.06433
upperback -0.0652799 2.27759 3.76915
thorax 1.95948 1.14104 2.84346
lowerneck -22.2204 -4.42998 -13.0049
upperneck 18.341 -5.27097 14.5714
head 10.2941 -1.68907 6.64038
rclavicle -9.0447e-015 -4.77083e-015
rhumerus -25.1066 17.6572 -83.4002
rradius 35.1115
rwrist -14.6618
rhand -30.7116 -23.7083
rfingers 7.12502
rthumb -4.00462 -53.6504
lclavicle -9.0447e-015 -4.77083e-015
lhumerus -47.3621 -3.65551 86.8765
lradius 21.5835
lwrist -3.08473
lhand -6.78843 -20.5166
lfingers 7.12502
lthumb 19.0743 8.56807
rfemur -2.10971 3.20882 32.4988
rtibia 17.267
rfoot -14.7949 1.40617
rtoes -10.9873
lfemur -37.4727 9.49387 -18.1128
ltibia 36.9586
lfoot -11.4526 13.0346
ltoes -16.7428
43
root 8.34266 16.3075 -27.0702 6.4848 -1.70433 -5.51887
lowerback -3.95064 1.91468 2.26376
upperback -0.000116903 2.36437 3.83667
thorax 2.14449 1.18576 2.81652
lowerneck -22.1417 -4.52363 -13.2024
upperneck 18.2075 -5.32107 14.5267
head 10.2439 -1.73455 6.64291
rclavicle 8.49804e-015 -1.03368e-014
rhumerus -24.6624 17.6352 -83.19
rradius 35.3347
rwrist -14.8049
rhand -30.7704 -24.3682
rfingers 7.12502
rthumb -4.06143 -54.3092
lclavicle 8.49804e-015 -1.03368e-014
lhumerus -47.4391 -3.57302 86.8051
lradius 21.8473
lwrist -2.82561
lhand -6.75106 -20.5052
lfingers 7.12502
lthumb 19.1102 8.57599
rfemur -1.32838 3.52713 32.641
rtibia 16.4143
rfoot -14.6611 1.42383
rtoes -9.80903
lfemur -37.4527 9.12867 -17.9437
ltibia 34.0642
lfoot -10.5602 13.1048
ltoes -15.3427
44
root 8.35123 16.3137 -26.9336 6.61566 -1.804 -5.68636
lowerback -4.10456 1.95164 2.39059
upperback 0.0655523 2.39451 3.94465
thorax 2.29833 1.20152 2.86744
lowerneck -22.3859 -4.60863 -13.4885
upperneck 18.2956 -5.3211 14.524
head 10.3281 -1.74744 6.69796
rclavicle -2.18663e-015 1.27222e-014
rhumerus -24.219 17.7732 -82.9287
rradius 35.4849
rwrist -14.9865
rhand -30.8766 -25.1228
rfingers 7.12502
rthumb -4.16397 -55.0619
lclavicle -2.18663e-015 1.27222e-014
lhumerus -47.3284 -3.35674 86.7789
lradius 21.8008
lwrist -2.72595
lhand -6.96852 -20.7761
lfingers 7.12502
lthumb 18.9011 8.3256
rfemur -0.617128 3.65518 32.7361
rtibia 15.662
rfoot -14.3968 1.56239
rtoes -8.08925
lfemur -37.2999 8.54198 -17.6749
ltibia 31.1062
lfoot -9.99401 13.1359
ltoes -12.4969
